<mxfile host="Electron" modified="2024-12-15T00:37:23.655Z" agent="Mozilla/5.0 (Windows NT 10.0; Win64; x64) AppleWebKit/537.36 (KHTML, like Gecko) draw.io/22.1.2 Chrome/114.0.5735.289 Electron/25.9.4 Safari/537.36" etag="P5wEiFTkv5i2qfJ7tjYy" version="22.1.2" type="device">
  <diagram id="C5RBs43oDa-KdzZeNtuy" name="Page-1">
    <mxGraphModel dx="705" dy="985" grid="1" gridSize="10" guides="1" tooltips="1" connect="1" arrows="1" fold="1" page="1" pageScale="1" pageWidth="1169" pageHeight="827" math="0" shadow="0">
      <root>
        <mxCell id="WIyWlLk6GJQsqaUBKTNV-0" />
        <mxCell id="WIyWlLk6GJQsqaUBKTNV-1" parent="WIyWlLk6GJQsqaUBKTNV-0" />
        <mxCell id="8mYtnuXAr4ikaiAVrFmj-67" style="rounded=0;orthogonalLoop=1;jettySize=auto;html=1;entryX=0;entryY=0.5;entryDx=0;entryDy=0;exitX=1;exitY=0.5;exitDx=0;exitDy=0;" edge="1" parent="WIyWlLk6GJQsqaUBKTNV-1" source="8mYtnuXAr4ikaiAVrFmj-1" target="8mYtnuXAr4ikaiAVrFmj-54">
          <mxGeometry relative="1" as="geometry" />
        </mxCell>
        <mxCell id="8mYtnuXAr4ikaiAVrFmj-68" style="rounded=0;orthogonalLoop=1;jettySize=auto;html=1;entryX=0;entryY=0.5;entryDx=0;entryDy=0;exitX=1;exitY=0.5;exitDx=0;exitDy=0;" edge="1" parent="WIyWlLk6GJQsqaUBKTNV-1" source="8mYtnuXAr4ikaiAVrFmj-1" target="8mYtnuXAr4ikaiAVrFmj-57">
          <mxGeometry relative="1" as="geometry" />
        </mxCell>
        <mxCell id="8mYtnuXAr4ikaiAVrFmj-69" style="rounded=0;orthogonalLoop=1;jettySize=auto;html=1;entryX=0;entryY=0.5;entryDx=0;entryDy=0;exitX=1;exitY=0.5;exitDx=0;exitDy=0;" edge="1" parent="WIyWlLk6GJQsqaUBKTNV-1" source="8mYtnuXAr4ikaiAVrFmj-1" target="8mYtnuXAr4ikaiAVrFmj-55">
          <mxGeometry relative="1" as="geometry">
            <mxPoint x="210" y="323" as="sourcePoint" />
          </mxGeometry>
        </mxCell>
        <mxCell id="8mYtnuXAr4ikaiAVrFmj-70" style="rounded=0;orthogonalLoop=1;jettySize=auto;html=1;entryX=0;entryY=0.5;entryDx=0;entryDy=0;exitX=1;exitY=0.5;exitDx=0;exitDy=0;" edge="1" parent="WIyWlLk6GJQsqaUBKTNV-1" source="8mYtnuXAr4ikaiAVrFmj-1" target="8mYtnuXAr4ikaiAVrFmj-56">
          <mxGeometry relative="1" as="geometry" />
        </mxCell>
        <mxCell id="8mYtnuXAr4ikaiAVrFmj-1" value="Directory of Grade Data CSV files" style="rounded=0;whiteSpace=wrap;html=1;fontFamily=Times New Roman;fontSize=10;" vertex="1" parent="WIyWlLk6GJQsqaUBKTNV-1">
          <mxGeometry y="383" width="120" height="60" as="geometry" />
        </mxCell>
        <mxCell id="8mYtnuXAr4ikaiAVrFmj-53" value="Split up CSV Into Individual Records" style="text;html=1;strokeColor=none;fillColor=none;align=center;verticalAlign=middle;whiteSpace=wrap;rounded=0;fontFamily=Times New Roman;fontSize=16;" vertex="1" parent="WIyWlLk6GJQsqaUBKTNV-1">
          <mxGeometry x="160" y="203" width="210" height="30" as="geometry" />
        </mxCell>
        <mxCell id="8mYtnuXAr4ikaiAVrFmj-66" style="edgeStyle=orthogonalEdgeStyle;rounded=0;orthogonalLoop=1;jettySize=auto;html=1;entryX=0;entryY=0.5;entryDx=0;entryDy=0;" edge="1" parent="WIyWlLk6GJQsqaUBKTNV-1" source="8mYtnuXAr4ikaiAVrFmj-54" target="8mYtnuXAr4ikaiAVrFmj-59">
          <mxGeometry relative="1" as="geometry" />
        </mxCell>
        <mxCell id="8mYtnuXAr4ikaiAVrFmj-54" value="(&#39;1043947&#39;, &#39;FS2020&#39;, &#39;ART 1320&#39;, 3, &#39;B&#39;)" style="rounded=0;whiteSpace=wrap;html=1;fontFamily=Times New Roman;" vertex="1" parent="WIyWlLk6GJQsqaUBKTNV-1">
          <mxGeometry x="160" y="278" width="210" height="30" as="geometry" />
        </mxCell>
        <mxCell id="8mYtnuXAr4ikaiAVrFmj-64" style="edgeStyle=orthogonalEdgeStyle;rounded=0;orthogonalLoop=1;jettySize=auto;html=1;entryX=0;entryY=0.5;entryDx=0;entryDy=0;" edge="1" parent="WIyWlLk6GJQsqaUBKTNV-1" source="8mYtnuXAr4ikaiAVrFmj-55" target="8mYtnuXAr4ikaiAVrFmj-61">
          <mxGeometry relative="1" as="geometry" />
        </mxCell>
        <mxCell id="8mYtnuXAr4ikaiAVrFmj-55" value="(&#39;1154058&#39;, &#39;FS2020&#39;, &#39;HIST 2652&#39;, 3, &#39;A&#39;)" style="rounded=0;whiteSpace=wrap;html=1;fontFamily=Times New Roman;" vertex="1" parent="WIyWlLk6GJQsqaUBKTNV-1">
          <mxGeometry x="160" y="457" width="210" height="30" as="geometry" />
        </mxCell>
        <mxCell id="8mYtnuXAr4ikaiAVrFmj-63" style="edgeStyle=orthogonalEdgeStyle;rounded=0;orthogonalLoop=1;jettySize=auto;html=1;entryX=0;entryY=0.5;entryDx=0;entryDy=0;" edge="1" parent="WIyWlLk6GJQsqaUBKTNV-1" source="8mYtnuXAr4ikaiAVrFmj-56" target="8mYtnuXAr4ikaiAVrFmj-62">
          <mxGeometry relative="1" as="geometry" />
        </mxCell>
        <mxCell id="8mYtnuXAr4ikaiAVrFmj-56" value="(&#39;1043947&#39;, &#39;FS2022&#39;, &#39;MATH 2341&#39;, 3, &#39;C&#39;)" style="rounded=0;whiteSpace=wrap;html=1;fontFamily=Times New Roman;" vertex="1" parent="WIyWlLk6GJQsqaUBKTNV-1">
          <mxGeometry x="160" y="533" width="210" height="30" as="geometry" />
        </mxCell>
        <mxCell id="8mYtnuXAr4ikaiAVrFmj-65" style="edgeStyle=orthogonalEdgeStyle;rounded=0;orthogonalLoop=1;jettySize=auto;html=1;entryX=0;entryY=0.5;entryDx=0;entryDy=0;" edge="1" parent="WIyWlLk6GJQsqaUBKTNV-1" source="8mYtnuXAr4ikaiAVrFmj-57" target="8mYtnuXAr4ikaiAVrFmj-60">
          <mxGeometry relative="1" as="geometry" />
        </mxCell>
        <mxCell id="8mYtnuXAr4ikaiAVrFmj-57" value="(&#39;1043947&#39;, &#39;FS2020&#39;, &#39;CS 1500&#39;, 3, &#39;D&#39;)" style="rounded=0;whiteSpace=wrap;html=1;fontFamily=Times New Roman;" vertex="1" parent="WIyWlLk6GJQsqaUBKTNV-1">
          <mxGeometry x="160" y="353" width="210" height="30" as="geometry" />
        </mxCell>
        <mxCell id="8mYtnuXAr4ikaiAVrFmj-83" style="edgeStyle=orthogonalEdgeStyle;rounded=0;orthogonalLoop=1;jettySize=auto;html=1;entryX=0;entryY=0.5;entryDx=0;entryDy=0;" edge="1" parent="WIyWlLk6GJQsqaUBKTNV-1" source="8mYtnuXAr4ikaiAVrFmj-58" target="8mYtnuXAr4ikaiAVrFmj-79">
          <mxGeometry relative="1" as="geometry" />
        </mxCell>
        <mxCell id="8mYtnuXAr4ikaiAVrFmj-58" value="(&lt;br&gt;&lt;span style=&quot;white-space: pre;&quot;&gt;&#x9;&lt;/span&gt;(&#39;1043947&#39;, &#39;FS2020&#39;),&lt;br&gt;&lt;span style=&quot;white-space: pre;&quot;&gt;&#x9;&lt;span style=&quot;white-space: pre;&quot;&gt;&#x9;&lt;/span&gt;&lt;/span&gt;(&#39;ART 1320&#39;, 3, &#39;B&#39;), &lt;br&gt;&lt;span style=&quot;white-space: pre;&quot;&gt;&#x9;&lt;span style=&quot;white-space: pre;&quot;&gt;&#x9;&lt;/span&gt;&lt;/span&gt;(&#39;CS 1500&#39;, 3, &#39;D&#39;),&lt;br&gt;&lt;span style=&quot;white-space: pre;&quot;&gt;&#x9;&lt;/span&gt;&lt;span style=&quot;white-space: pre;&quot;&gt;&#x9;&lt;/span&gt;...&lt;br&gt;)" style="rounded=0;whiteSpace=wrap;html=1;fontFamily=Times New Roman;align=left;" vertex="1" parent="WIyWlLk6GJQsqaUBKTNV-1">
          <mxGeometry x="620" y="263" width="160" height="90" as="geometry" />
        </mxCell>
        <mxCell id="8mYtnuXAr4ikaiAVrFmj-72" style="rounded=0;orthogonalLoop=1;jettySize=auto;html=1;entryX=0;entryY=0.5;entryDx=0;entryDy=0;exitX=1;exitY=0.5;exitDx=0;exitDy=0;" edge="1" parent="WIyWlLk6GJQsqaUBKTNV-1" source="8mYtnuXAr4ikaiAVrFmj-59" target="8mYtnuXAr4ikaiAVrFmj-58">
          <mxGeometry relative="1" as="geometry" />
        </mxCell>
        <mxCell id="8mYtnuXAr4ikaiAVrFmj-59" value="(&lt;br&gt;&lt;span style=&quot;white-space: pre;&quot;&gt;&#x9;&lt;/span&gt;(&#39;1043947&#39;, &#39;FS2020&#39;), &lt;br&gt;&lt;span style=&quot;white-space: pre;&quot;&gt;&#x9;&lt;/span&gt;(&#39;ART 1320&#39;, 3, &#39;B&#39;)&lt;br&gt;)" style="rounded=0;whiteSpace=wrap;html=1;fontFamily=Times New Roman;align=left;" vertex="1" parent="WIyWlLk6GJQsqaUBKTNV-1">
          <mxGeometry x="400" y="263" width="150" height="60" as="geometry" />
        </mxCell>
        <mxCell id="8mYtnuXAr4ikaiAVrFmj-73" style="rounded=0;orthogonalLoop=1;jettySize=auto;html=1;entryX=0;entryY=0.5;entryDx=0;entryDy=0;exitX=1;exitY=0.5;exitDx=0;exitDy=0;" edge="1" parent="WIyWlLk6GJQsqaUBKTNV-1" source="8mYtnuXAr4ikaiAVrFmj-60" target="8mYtnuXAr4ikaiAVrFmj-58">
          <mxGeometry relative="1" as="geometry" />
        </mxCell>
        <mxCell id="8mYtnuXAr4ikaiAVrFmj-60" value="(&lt;br&gt;&lt;span style=&quot;white-space: pre;&quot;&gt;&#x9;&lt;/span&gt;&#39;(1043947&#39;, &#39;FS2020&#39;),&lt;br&gt;&lt;span style=&quot;white-space: pre;&quot;&gt;&#x9;&lt;/span&gt;(&#39;CS 1500&#39;, 3, &#39;D&#39;)&lt;br&gt;)" style="rounded=0;whiteSpace=wrap;html=1;fontFamily=Times New Roman;align=left;" vertex="1" parent="WIyWlLk6GJQsqaUBKTNV-1">
          <mxGeometry x="400" y="338" width="150" height="60" as="geometry" />
        </mxCell>
        <mxCell id="8mYtnuXAr4ikaiAVrFmj-74" style="rounded=0;orthogonalLoop=1;jettySize=auto;html=1;entryX=0;entryY=0.5;entryDx=0;entryDy=0;exitX=1;exitY=0.5;exitDx=0;exitDy=0;" edge="1" parent="WIyWlLk6GJQsqaUBKTNV-1" source="8mYtnuXAr4ikaiAVrFmj-61" target="8mYtnuXAr4ikaiAVrFmj-77">
          <mxGeometry relative="1" as="geometry">
            <mxPoint x="619.9999999999998" y="413" as="targetPoint" />
          </mxGeometry>
        </mxCell>
        <mxCell id="8mYtnuXAr4ikaiAVrFmj-61" value="(&lt;br&gt;&lt;span style=&quot;white-space: pre;&quot;&gt;&#x9;&lt;/span&gt;(&#39;1154058&#39;, &#39;FS2020&#39;),&lt;br&gt;&lt;span style=&quot;white-space: pre;&quot;&gt;&#x9;&lt;/span&gt;(&#39;HIST 2652&#39;, 3, &#39;A&#39;)&lt;br&gt;)" style="rounded=0;whiteSpace=wrap;html=1;fontFamily=Times New Roman;align=left;" vertex="1" parent="WIyWlLk6GJQsqaUBKTNV-1">
          <mxGeometry x="400" y="442" width="150" height="60" as="geometry" />
        </mxCell>
        <mxCell id="8mYtnuXAr4ikaiAVrFmj-75" style="rounded=0;orthogonalLoop=1;jettySize=auto;html=1;entryX=0;entryY=0.5;entryDx=0;entryDy=0;" edge="1" parent="WIyWlLk6GJQsqaUBKTNV-1" source="8mYtnuXAr4ikaiAVrFmj-62" target="8mYtnuXAr4ikaiAVrFmj-78">
          <mxGeometry relative="1" as="geometry">
            <mxPoint x="619.9999999999998" y="478" as="targetPoint" />
          </mxGeometry>
        </mxCell>
        <mxCell id="8mYtnuXAr4ikaiAVrFmj-62" value="(&lt;br&gt;&lt;span style=&quot;white-space: pre;&quot;&gt;&#x9;&lt;/span&gt;(&#39;1043947&#39;, &#39;FS2022&#39;),&lt;br&gt;&lt;span style=&quot;white-space: pre;&quot;&gt;&#x9;&lt;/span&gt;(&#39;MATH 2341&#39;, 3, &#39;C&#39;)&lt;br&gt;)" style="rounded=0;whiteSpace=wrap;html=1;fontFamily=Times New Roman;align=left;" vertex="1" parent="WIyWlLk6GJQsqaUBKTNV-1">
          <mxGeometry x="400" y="518" width="150" height="60" as="geometry" />
        </mxCell>
        <mxCell id="8mYtnuXAr4ikaiAVrFmj-71" value="Split Records into Key and Value.&amp;nbsp;" style="text;html=1;strokeColor=none;fillColor=none;align=center;verticalAlign=middle;whiteSpace=wrap;rounded=0;fontFamily=Times New Roman;fontSize=16;" vertex="1" parent="WIyWlLk6GJQsqaUBKTNV-1">
          <mxGeometry x="387.5" y="203" width="175" height="30" as="geometry" />
        </mxCell>
        <mxCell id="8mYtnuXAr4ikaiAVrFmj-76" value="Shuffle/Combine Records" style="text;html=1;strokeColor=none;fillColor=none;align=center;verticalAlign=middle;whiteSpace=wrap;rounded=0;fontFamily=Times New Roman;fontSize=16;" vertex="1" parent="WIyWlLk6GJQsqaUBKTNV-1">
          <mxGeometry x="605" y="203" width="190" height="30" as="geometry" />
        </mxCell>
        <mxCell id="8mYtnuXAr4ikaiAVrFmj-82" style="edgeStyle=orthogonalEdgeStyle;rounded=0;orthogonalLoop=1;jettySize=auto;html=1;entryX=0;entryY=0.5;entryDx=0;entryDy=0;" edge="1" parent="WIyWlLk6GJQsqaUBKTNV-1" source="8mYtnuXAr4ikaiAVrFmj-77" target="8mYtnuXAr4ikaiAVrFmj-80">
          <mxGeometry relative="1" as="geometry" />
        </mxCell>
        <mxCell id="8mYtnuXAr4ikaiAVrFmj-77" value="(&lt;br&gt;&lt;span style=&quot;&quot;&gt;&lt;span style=&quot;&quot;&gt;&amp;nbsp;&amp;nbsp;&amp;nbsp;&lt;span style=&quot;white-space: pre;&quot;&gt;&#x9;&lt;/span&gt;&lt;/span&gt;&lt;/span&gt;(&#39;1154058&#39;, &#39;FS2020&#39;),&lt;br&gt;&lt;span style=&quot;&quot;&gt;&lt;span style=&quot;&quot;&gt;&amp;nbsp;&amp;nbsp;&amp;nbsp;&amp;nbsp;&lt;/span&gt;&lt;span style=&quot;&quot;&gt;&lt;span style=&quot;&quot;&gt;&amp;nbsp;&amp;nbsp;&amp;nbsp;&amp;nbsp;&lt;span style=&quot;white-space: pre;&quot;&gt;&#x9;&lt;/span&gt;&lt;/span&gt;&lt;/span&gt;&lt;/span&gt;(&#39;HIST 2652&#39;, 3, &#39;A&#39;), &lt;br&gt;&lt;span style=&quot;&quot;&gt;&lt;span style=&quot;&quot;&gt;&amp;nbsp;&amp;nbsp;&amp;nbsp;&amp;nbsp;&lt;/span&gt;&lt;/span&gt;&lt;span style=&quot;&quot;&gt;&lt;span style=&quot;&quot;&gt;&amp;nbsp;&amp;nbsp;&amp;nbsp;&amp;nbsp;&lt;span style=&quot;white-space: pre;&quot;&gt;&#x9;&lt;/span&gt;&lt;/span&gt;&lt;/span&gt;...&lt;br&gt;)" style="rounded=0;whiteSpace=wrap;html=1;fontFamily=Times New Roman;align=left;" vertex="1" parent="WIyWlLk6GJQsqaUBKTNV-1">
          <mxGeometry x="620" y="383" width="160" height="90" as="geometry" />
        </mxCell>
        <mxCell id="8mYtnuXAr4ikaiAVrFmj-84" style="edgeStyle=orthogonalEdgeStyle;rounded=0;orthogonalLoop=1;jettySize=auto;html=1;entryX=0;entryY=0.5;entryDx=0;entryDy=0;" edge="1" parent="WIyWlLk6GJQsqaUBKTNV-1" source="8mYtnuXAr4ikaiAVrFmj-78" target="8mYtnuXAr4ikaiAVrFmj-81">
          <mxGeometry relative="1" as="geometry" />
        </mxCell>
        <mxCell id="8mYtnuXAr4ikaiAVrFmj-78" value="(&lt;br&gt;&lt;span style=&quot;white-space: pre;&quot;&gt;&#x9;&lt;/span&gt;(&#39;1043947&#39;, &#39;FS2022&#39;),&lt;br&gt;&lt;span style=&quot;&quot;&gt;&lt;span style=&quot;&quot;&gt;&amp;nbsp;&amp;nbsp;&amp;nbsp;&amp;nbsp;&lt;/span&gt;&lt;span style=&quot;&quot;&gt;&lt;span style=&quot;&quot;&gt;&amp;nbsp;&amp;nbsp;&amp;nbsp;&amp;nbsp;&lt;span style=&quot;white-space: pre;&quot;&gt;&#x9;&lt;/span&gt;&lt;/span&gt;&lt;/span&gt;&lt;/span&gt;(&#39;MATH 2341&#39;, 3, &#39;C&#39;), &lt;br&gt;&lt;span style=&quot;&quot;&gt;&lt;span style=&quot;&quot;&gt;&amp;nbsp;&amp;nbsp;&amp;nbsp;&amp;nbsp;&lt;/span&gt;&lt;/span&gt;&lt;span style=&quot;&quot;&gt;&lt;span style=&quot;&quot;&gt;&amp;nbsp;&amp;nbsp;&amp;nbsp;&amp;nbsp;&lt;span style=&quot;white-space: pre;&quot;&gt;&#x9;&lt;/span&gt;&lt;/span&gt;&lt;/span&gt;...&lt;br&gt;)" style="rounded=0;whiteSpace=wrap;html=1;fontFamily=Times New Roman;align=left;" vertex="1" parent="WIyWlLk6GJQsqaUBKTNV-1">
          <mxGeometry x="620" y="503" width="160" height="90" as="geometry" />
        </mxCell>
        <mxCell id="8mYtnuXAr4ikaiAVrFmj-79" value="(&#39;1043947&#39;, &#39;FS2020&#39;, 2.59)" style="rounded=0;whiteSpace=wrap;html=1;fontFamily=Times New Roman;" vertex="1" parent="WIyWlLk6GJQsqaUBKTNV-1">
          <mxGeometry x="840" y="293" width="140" height="30" as="geometry" />
        </mxCell>
        <mxCell id="8mYtnuXAr4ikaiAVrFmj-80" value="(&#39;1154058&#39;, &#39;FS2020&#39;, 3.75)" style="rounded=0;whiteSpace=wrap;html=1;fontFamily=Times New Roman;" vertex="1" parent="WIyWlLk6GJQsqaUBKTNV-1">
          <mxGeometry x="840" y="413" width="140" height="30" as="geometry" />
        </mxCell>
        <mxCell id="8mYtnuXAr4ikaiAVrFmj-81" value="(&#39;1043947&#39;, &#39;FS2022&#39;, 2.75)" style="rounded=0;whiteSpace=wrap;html=1;fontFamily=Times New Roman;" vertex="1" parent="WIyWlLk6GJQsqaUBKTNV-1">
          <mxGeometry x="840" y="533" width="140" height="30" as="geometry" />
        </mxCell>
        <mxCell id="8mYtnuXAr4ikaiAVrFmj-85" value="Reduce" style="text;html=1;strokeColor=none;fillColor=none;align=center;verticalAlign=middle;whiteSpace=wrap;rounded=0;fontFamily=Times New Roman;fontSize=16;" vertex="1" parent="WIyWlLk6GJQsqaUBKTNV-1">
          <mxGeometry x="840" y="203" width="140" height="30" as="geometry" />
        </mxCell>
        <mxCell id="8mYtnuXAr4ikaiAVrFmj-86" value="&lt;font style=&quot;font-size: 18px;&quot;&gt;&lt;b&gt;...&lt;/b&gt;&lt;/font&gt;" style="text;html=1;strokeColor=none;fillColor=none;align=center;verticalAlign=middle;whiteSpace=wrap;rounded=0;" vertex="1" parent="WIyWlLk6GJQsqaUBKTNV-1">
          <mxGeometry x="235" y="314" width="60" height="30" as="geometry" />
        </mxCell>
        <mxCell id="8mYtnuXAr4ikaiAVrFmj-87" value="&lt;font style=&quot;font-size: 18px;&quot;&gt;&lt;b&gt;...&lt;/b&gt;&lt;/font&gt;" style="text;html=1;strokeColor=none;fillColor=none;align=center;verticalAlign=middle;whiteSpace=wrap;rounded=0;" vertex="1" parent="WIyWlLk6GJQsqaUBKTNV-1">
          <mxGeometry x="225" y="404" width="60" height="30" as="geometry" />
        </mxCell>
        <mxCell id="8mYtnuXAr4ikaiAVrFmj-88" value="&lt;font style=&quot;font-size: 18px;&quot;&gt;&lt;b&gt;...&lt;/b&gt;&lt;/font&gt;" style="text;html=1;strokeColor=none;fillColor=none;align=center;verticalAlign=middle;whiteSpace=wrap;rounded=0;" vertex="1" parent="WIyWlLk6GJQsqaUBKTNV-1">
          <mxGeometry x="225" y="494" width="60" height="30" as="geometry" />
        </mxCell>
        <mxCell id="8mYtnuXAr4ikaiAVrFmj-89" value="&lt;font style=&quot;font-size: 18px;&quot;&gt;&lt;b&gt;...&lt;/b&gt;&lt;/font&gt;" style="text;html=1;strokeColor=none;fillColor=none;align=center;verticalAlign=middle;whiteSpace=wrap;rounded=0;" vertex="1" parent="WIyWlLk6GJQsqaUBKTNV-1">
          <mxGeometry x="225" y="574" width="60" height="30" as="geometry" />
        </mxCell>
        <mxCell id="8mYtnuXAr4ikaiAVrFmj-90" value="&lt;font style=&quot;font-size: 18px;&quot;&gt;&lt;b&gt;...&lt;/b&gt;&lt;/font&gt;" style="text;html=1;strokeColor=none;fillColor=none;align=center;verticalAlign=middle;whiteSpace=wrap;rounded=0;" vertex="1" parent="WIyWlLk6GJQsqaUBKTNV-1">
          <mxGeometry x="445" y="314" width="60" height="30" as="geometry" />
        </mxCell>
        <mxCell id="8mYtnuXAr4ikaiAVrFmj-91" value="&lt;font style=&quot;font-size: 18px;&quot;&gt;&lt;b&gt;...&lt;/b&gt;&lt;/font&gt;" style="text;html=1;strokeColor=none;fillColor=none;align=center;verticalAlign=middle;whiteSpace=wrap;rounded=0;" vertex="1" parent="WIyWlLk6GJQsqaUBKTNV-1">
          <mxGeometry x="445" y="404" width="60" height="30" as="geometry" />
        </mxCell>
        <mxCell id="8mYtnuXAr4ikaiAVrFmj-92" value="&lt;font style=&quot;font-size: 18px;&quot;&gt;&lt;b&gt;...&lt;/b&gt;&lt;/font&gt;" style="text;html=1;strokeColor=none;fillColor=none;align=center;verticalAlign=middle;whiteSpace=wrap;rounded=0;" vertex="1" parent="WIyWlLk6GJQsqaUBKTNV-1">
          <mxGeometry x="445" y="494" width="60" height="30" as="geometry" />
        </mxCell>
        <mxCell id="8mYtnuXAr4ikaiAVrFmj-93" value="&lt;font style=&quot;font-size: 18px;&quot;&gt;&lt;b&gt;...&lt;/b&gt;&lt;/font&gt;" style="text;html=1;strokeColor=none;fillColor=none;align=center;verticalAlign=middle;whiteSpace=wrap;rounded=0;" vertex="1" parent="WIyWlLk6GJQsqaUBKTNV-1">
          <mxGeometry x="445" y="574" width="60" height="30" as="geometry" />
        </mxCell>
        <mxCell id="8mYtnuXAr4ikaiAVrFmj-94" value="&lt;font style=&quot;font-size: 18px;&quot;&gt;&lt;b&gt;...&lt;/b&gt;&lt;/font&gt;" style="text;html=1;strokeColor=none;fillColor=none;align=center;verticalAlign=middle;whiteSpace=wrap;rounded=0;" vertex="1" parent="WIyWlLk6GJQsqaUBKTNV-1">
          <mxGeometry x="670" y="353" width="60" height="30" as="geometry" />
        </mxCell>
        <mxCell id="8mYtnuXAr4ikaiAVrFmj-95" value="&lt;font style=&quot;font-size: 18px;&quot;&gt;&lt;b&gt;...&lt;/b&gt;&lt;/font&gt;" style="text;html=1;strokeColor=none;fillColor=none;align=center;verticalAlign=middle;whiteSpace=wrap;rounded=0;" vertex="1" parent="WIyWlLk6GJQsqaUBKTNV-1">
          <mxGeometry x="670" y="473" width="60" height="30" as="geometry" />
        </mxCell>
        <mxCell id="8mYtnuXAr4ikaiAVrFmj-96" value="&lt;font style=&quot;font-size: 18px;&quot;&gt;&lt;b&gt;...&lt;/b&gt;&lt;/font&gt;" style="text;html=1;strokeColor=none;fillColor=none;align=center;verticalAlign=middle;whiteSpace=wrap;rounded=0;" vertex="1" parent="WIyWlLk6GJQsqaUBKTNV-1">
          <mxGeometry x="670" y="593" width="60" height="30" as="geometry" />
        </mxCell>
        <mxCell id="8mYtnuXAr4ikaiAVrFmj-97" value="&lt;font style=&quot;font-size: 18px;&quot;&gt;&lt;b&gt;...&lt;/b&gt;&lt;/font&gt;" style="text;html=1;strokeColor=none;fillColor=none;align=center;verticalAlign=middle;whiteSpace=wrap;rounded=0;" vertex="1" parent="WIyWlLk6GJQsqaUBKTNV-1">
          <mxGeometry x="880" y="353" width="60" height="30" as="geometry" />
        </mxCell>
        <mxCell id="8mYtnuXAr4ikaiAVrFmj-98" value="&lt;font style=&quot;font-size: 18px;&quot;&gt;&lt;b&gt;...&lt;/b&gt;&lt;/font&gt;" style="text;html=1;strokeColor=none;fillColor=none;align=center;verticalAlign=middle;whiteSpace=wrap;rounded=0;" vertex="1" parent="WIyWlLk6GJQsqaUBKTNV-1">
          <mxGeometry x="880" y="473" width="60" height="30" as="geometry" />
        </mxCell>
        <mxCell id="8mYtnuXAr4ikaiAVrFmj-99" value="&lt;font style=&quot;font-size: 18px;&quot;&gt;&lt;b&gt;...&lt;/b&gt;&lt;/font&gt;" style="text;html=1;strokeColor=none;fillColor=none;align=center;verticalAlign=middle;whiteSpace=wrap;rounded=0;" vertex="1" parent="WIyWlLk6GJQsqaUBKTNV-1">
          <mxGeometry x="880" y="578" width="60" height="30" as="geometry" />
        </mxCell>
      </root>
    </mxGraphModel>
  </diagram>
</mxfile>
